<svg viewBox="0 0 100 100" xmlns="http://www.w3.org/2000/svg" fill-rule="evenodd" clip-rule="evenodd" stroke-linecap="round" stroke-linejoin="round" stroke-miterlimit="1.5"><circle cx="50.938" cy="49.776" r="46.491" fill="none" stroke="#000" stroke-width="5" transform="translate(-.938 .224)"/><path d="M23.12 45.52h43.008L55.779 35.171c-.882-.882-1.299-1.935-1.299-3.09 0-2.205 1.821-4.48 4.48-4.48 1.19 0 2.226.431 3.091 1.298l17.826 17.826c.735.735 1.483 1.642 1.483 3.275s-.625 2.42-1.447 3.241L62.05 71.101c-.865.866-1.902 1.299-3.091 1.299-2.661 0-4.48-2.276-4.48-4.48 0-1.156.417-2.209 1.3-3.091l10.348-10.35H23.12A4.482 4.482 0 0118.64 50a4.482 4.482 0 014.48-4.48z" fill-rule="nonzero"/></svg>