<svg viewBox="0 0 100 100" xmlns="http://www.w3.org/2000/svg" fill-rule="evenodd" clip-rule="evenodd" stroke-linejoin="round" stroke-miterlimit="2"><g fill-rule="nonzero"><path d="M50.016 52.876L29.103 4.689a80.044 80.044 0 0110.943-2.14c5.2-.645 10.42-.776 15.586-.41A81.06 81.06 0 0170.898 4.7L50.016 52.876z"/><path d="M50 4c25.365 0 46.001 20.636 46.001 46 0 25.365-20.636 46-46.001 46C24.636 96 4 75.365 4 50 4 24.636 24.636 4 50 4m0-4C22.386 0 0 22.386 0 50c0 27.615 22.386 50 50 50 27.615 0 50.001-22.385 50.001-50 0-27.614-22.386-50-50.001-50z"/></g></svg>